<svg xmlns="http://www.w3.org/2000/svg" version="1.1" xmlns:xlink="http://www.w3.org/1999/xlink" xmlns:svgjs="http://svgjs.dev/svgjs" width="2000" height="1999" viewBox="0 0 2000 1999"><g transform="matrix(1,0,0,1,-0.431486880466764,-0.4312711370263287)"><svg viewBox="0 0 343 343" data-background-color="#ffffff" preserveAspectRatio="xMidYMid meet" height="1999" width="2000" xmlns="http://www.w3.org/2000/svg" xmlns:xlink="http://www.w3.org/1999/xlink"><g id="tight-bounds" transform="matrix(1,0,0,1,0.0740000000000407,0.07400000000001228)"><svg viewBox="0 0 342.85155851775386 342.85155851775386" height="342.85155851775386" width="342.85155851775386"><g><svg></svg></g><g><svg viewBox="0 0 342.85155851775386 342.85155851775386" height="342.85155851775386" width="342.85155851775386"><g><path d="M0 171.426c0-94.676 76.75-171.426 171.426-171.426 94.676 0 171.426 76.75 171.426 171.426 0 94.676-76.75 171.426-171.426 171.426-94.676 0-171.426-76.75-171.426-171.426zM171.426 335.227c90.465 0 163.801-73.336 163.801-163.801 0-90.465-73.336-163.801-163.801-163.801-90.465 0-163.801 73.336-163.801 163.801 0 90.465 73.336 163.801 163.801 163.801z" data-fill-palette-color="tertiary" fill="#755bb4" stroke="transparent"></path><ellipse rx="164.56874808852186" ry="164.56874808852186" cx="171.42577925887693" cy="171.42577925887693" fill="#755bb4" stroke="transparent" stroke-width="0" fill-opacity="1" data-fill-palette-color="tertiary"></ellipse></g><g transform="matrix(1,0,0,1,64.84655864529837,129.15043491215351)"><svg viewBox="0 0 213.1584412271571 84.55068869344682" height="84.55068869344682" width="213.1584412271571"><g><svg viewBox="0 0 213.1584412271571 84.55068869344682" height="84.55068869344682" width="213.1584412271571"><g><svg viewBox="0 0 213.1584412271571 84.55068869344682" height="84.55068869344682" width="213.1584412271571"><g><svg viewBox="0 0 213.1584412271571 84.55068869344682" height="84.55068869344682" width="213.1584412271571"><g id="textblocktransform"><svg viewBox="0 0 213.1584412271571 84.55068869344682" height="84.55068869344682" width="213.1584412271571" id="textblock"><g><svg viewBox="0 0 213.1584412271571 84.55068869344682" height="84.55068869344682" width="213.1584412271571"><g transform="matrix(1,0,0,1,0,0)"><svg width="213.1584412271571" viewBox="-1.440000057220459 -31.860000610351562 80.31999969482422 31.860000610351562" height="84.55068869344682" data-palette-color="#ffffff"><path d="M13.7-31.86L24.29 0 20.7 0 17.7-9.11 5.1-9.11 2.15 0-1.44 0 9.16-31.86 13.7-31.86ZM6.05-12.06L16.75-12.06 11.4-28.49 6.05-12.06ZM48.85-31.86L48.85 0 45.48 0 45.48-14.75 31.83-14.75 31.83 0 28.49 0 28.49-31.86 31.83-31.86 31.83-17.6 45.48-17.6 45.48-31.86 48.85-31.86ZM68.28-31.86L78.88 0 75.29 0 72.29-9.11 59.69-9.11 56.73 0 53.14 0 63.74-31.86 68.28-31.86ZM60.64-12.06L71.33-12.06 65.99-28.49 60.64-12.06Z" opacity="1" transform="matrix(1,0,0,1,0,0)" fill="#ffffff" class="undefined-text-0" data-fill-palette-color="quaternary" id="text-0"></path></svg></g></svg></g></svg></g></svg></g><g></g></svg></g></svg></g></svg></g></svg></g><defs></defs></svg><rect width="342.85155851775386" height="342.85155851775386" fill="none" stroke="none" visibility="hidden"></rect></g></svg></g></svg>